# xmcd CD database file
#
# Track frame offsets:
#	150
#	19028
#	38943
#
# Disc length: 784 seconds
#
# Revision: 0
# Processed by: cddbd v1.4PL0 Copyright (c) Steve Scherf et al.
# Submitted via: CDex 1.50Beta7
#
DISCID=1b030e03
DTITLE=Ben E. King - Supernatural Thing (Part 1)
DYEAR=1990
DGENRE=Blues
TTITLE0=Supernatural Thing (Part 1)
TTITLE1=Do It In The Name Of Love
TTITLE2=Do You Wanna Do A Thing
EXTD=YEAR: 1990
EXTT0=
EXTT1=
EXTT2=
PLAYORDER=
